<svg xmlns="http://www.w3.org/2000/svg" viewBox="0 0 50 50" fill="none"><path d="M40.911 9.207H29.234V5a.5.5 0 0 0-.5-.5H5a.5.5 0 0 0-.5.5v31.2a4.59 4.59 0 0 0 4.524 4.582h11.744V45a.5.5 0 0 0 .5.5H45a.5.5 0 0 0 .5-.5V13.8a4.6 4.6 0 0 0-4.589-4.593Z" fill="#8af3ff"></path><path d="M5.5 36.2V5.5h22.734v3.707H17.583a4.6 4.6 0 0 0-4.991 4.591s.086 22.266.086 22.406a3.591 3.591 0 0 1-3.56 3.586H9.06A3.592 3.592 0 0 1 5.5 36.2Z" fill="#ff8e5a"></path><path d="M11.918 39.79a4.567 4.567 0 0 0 1.76-3.586c0-.1-.086-22.41-.086-22.408a3.59 3.59 0 0 1 7.179 0v25.994Z" fill="#ffba50"></path><path d="M44.5 44.5H21.768V13.8a4.585 4.585 0 0 0-1.733-3.589h20.876A3.593 3.593 0 0 1 44.5 13.8Z" fill="#ffffff"></path><path d="M41.13 37.239H25.136a.5.5 0 0 0 0 1H41.13a.5.5 0 0 0 0-1Zm0-5.547H25.136a.5.5 0 0 0 0 1H41.13a.5.5 0 0 0 0-1Zm0-5.536H25.136a.5.5 0 0 0 0 1H41.13a.5.5 0 0 0 0-1Zm0-5.503H25.136a.5.5 0 0 0 0 1H41.13a.5.5 0 0 0 0-1Zm0-5.547H25.136a.5.5 0 0 0 0 1H41.13a.5.5 0 0 0 0-1Z" fill="#8af3ff" opacity="0.88"></path></svg>
