<svg xmlns="http://www.w3.org/2000/svg" viewBox="0 0 720 300" preserveAspectRatio="xMidYMid slice">
  <defs>
    <linearGradient id="bg" x1="0" y1="0" x2="1" y2="1">
      <stop offset="0" stop-color="#123d62"/>
      <stop offset="0.52" stop-color="#071223"/>
      <stop offset="1" stop-color="#142044"/>
    </linearGradient>
    <radialGradient id="glow" cx="42%" cy="40%" r="54%">
      <stop offset="0" stop-color="#66f4ff" stop-opacity="0.46"/>
      <stop offset="0.42" stop-color="#1c6e95" stop-opacity="0.28"/>
      <stop offset="1" stop-color="#020711" stop-opacity="0"/>
    </radialGradient>
    <linearGradient id="gold" x1="0" y1="0" x2="1" y2="1">
      <stop offset="0" stop-color="#fff5b8"/>
      <stop offset="0.38" stop-color="#f0bd34"/>
      <stop offset="1" stop-color="#8b5a09"/>
    </linearGradient>
    <filter id="softGlow" x="-20%" y="-20%" width="140%" height="140%">
      <feGaussianBlur stdDeviation="7" result="blur"/>
      <feColorMatrix in="blur" type="matrix" values="0 0 0 0 0.24 0 0 0 0 0.87 0 0 0 0 1 0 0 0 .52 0" result="cyan"/>
      <feMerge><feMergeNode in="cyan"/><feMergeNode in="SourceGraphic"/></feMerge>
    </filter>
  </defs>
  <rect width="720" height="300" fill="url(#bg)"/>
  <rect width="720" height="300" fill="url(#glow)"/>
  <path d="M0 238 C138 166 218 292 365 216 C508 143 590 158 720 96 V300 H0 Z" fill="#020711" opacity="0.58"/>
  <g opacity="0.25" stroke="#85ecff" stroke-width="1.2">
    <path d="M54 48 H666"/>
    <path d="M54 94 H280 M328 94 H666"/>
    <path d="M54 252 H666"/>
    <path d="M112 0 V300 M608 0 V300"/>
  </g>
  <g transform="translate(98 70)" filter="url(#softGlow)">
    <rect x="0" y="0" width="260" height="158" rx="18" fill="#07182b" stroke="#6feaff" stroke-width="3"/>
    <rect x="20" y="24" width="220" height="18" rx="5" fill="#70eaff" opacity="0.32"/>
    <rect x="20" y="58" width="146" height="14" rx="5" fill="#fff4a8" opacity="0.42"/>
    <rect x="20" y="88" width="200" height="14" rx="5" fill="#70eaff" opacity="0.22"/>
    <rect x="20" y="118" width="118" height="14" rx="5" fill="#70eaff" opacity="0.22"/>
  </g>
  <g transform="translate(412 56)" filter="url(#softGlow)">
    <path d="M82 0 L154 28 V90 C154 146 119 182 82 198 C45 182 10 146 10 90 V28 Z" fill="#061523" stroke="#67f3ff" stroke-width="4"/>
    <path d="M52 95 L73 116 L116 66" fill="none" stroke="#7bf29a" stroke-width="10" stroke-linecap="round" stroke-linejoin="round"/>
    <circle cx="82" cy="102" r="73" fill="none" stroke="url(#gold)" stroke-width="6" opacity="0.86"/>
  </g>
  <g opacity="0.5">
    <circle cx="570" cy="62" r="4" fill="#fff4a8"/>
    <circle cx="594" cy="82" r="3" fill="#6feaff"/>
    <circle cx="620" cy="58" r="5" fill="#ff6f86"/>
    <circle cx="648" cy="92" r="3" fill="#fff4a8"/>
  </g>
</svg>
